<svg width="458" height="352" viewBox="0 0 458 352" fill="none" xmlns="http://www.w3.org/2000/svg">
<path d="M152.3 56.1L149.5 61H146.8L145.9 62.4H148.7L142.6 72.8C141.3 75 142.2 77 144.7 77C146.5 77 148.4 75.7 150.3 73.9C150.3 77.7 155.6 78.4 158.9 74.4H159.6C161.4 74.4 164.2 73.3 165.8 71.5C165.6 71.1 165.1 70.6 164.7 70.5L164.5 70.7C163.1 72.2 161.5 72.9 159.9 72.9L162.7 68.1C164.5 65 162.8 62 160 62C157.7 62 155.9 62.9 154.1 65.9L152.6 68.5L151.4 70.6L151.2 70.8C149 73.3 146.9 75.3 145.6 75.3C144.9 75.3 144.6 74.8 145.3 73.7L151.8 62.5H154.3L155 61H152.5L155.3 56.1H152.3ZM159.8 63.9C160.8 64 161.2 65.2 160.2 66.9L158 70.6H157.9C156.9 70.6 156.1 71.4 156.1 72.4C156.1 72.8 156.2 73.1 156.4 73.4V73.5C155 75.9 151.5 75.5 153.3 72.4L155.6 68.5L157.1 66.1C158 64.5 159.1 63.9 159.8 63.9ZM181.8 56.1L179 61H176.3L175.4 62.4H178.2L172 72.8C170.7 75 171.6 77 174.1 77C175.3 77 176.6 76.4 178 75.4L177.2 76.7H180.2L184.8 68.8C189.4 63 191.5 63.8 190.2 66L186.3 72.7C185 74.9 185.9 76.9 188.4 76.9C190.2 76.9 192.2 75.5 194.1 73.7C194.2 75.6 195.8 76.9 198.2 76.9C201.6 76.9 205 74.3 207.5 71.4C207.3 71 206.8 70.5 206.4 70.4L206.2 70.6C204 73.1 201.2 75.1 199.1 75.1C197.2 75.1 196.1 74 197.5 71.5L197.8 71C199.7 71.8 203.4 71.4 205.7 67.6L206.1 66.9C207.7 64.1 206.2 62.1 203.7 62.1C201.3 62.1 199.3 63.4 198 65.5L195.1 70.5L194.9 70.7C192.7 73.2 190.6 75.2 189.3 75.2C188.6 75.2 188.3 74.7 188.9 73.6L193.3 66.1C194.6 63.8 193.4 62.2 191.7 62.2C190.4 62.2 189 62.9 187.5 64.5L192.3 56.2H189.3L180.9 70.6L180.7 70.8C178.5 73.3 176.4 75.3 175.1 75.3C174.4 75.3 174.1 74.8 174.8 73.7L181.3 62.5H183.8L184.7 61.1H182.2L185 56.2L181.8 56.1ZM203.1 64.3C204.1 64.2 204.6 65.2 203.6 66.9L203.2 67.6C201.8 70 199.8 70 198.7 69.6L200.6 66.2C201.3 65 202.3 64.4 203.1 64.3ZM247.4 58.9C245.7 60.4 245.5 62.1 246.6 63.5L246.9 63.8C245.6 65.7 243.8 68.2 241.8 70.5L241.6 70.7C240.2 72.2 238.6 72.9 237 72.9L239.8 68.1C241.6 65 239.9 62 237.1 62C234.8 62 233 62.9 231.2 65.9L229.7 68.5L228.5 70.6L228.3 70.8C225.8 73.6 223.7 75.5 221.3 76.5L228.1 65.1H226.3C226.3 63.9 225 62.2 223.1 62.2C221.5 62.2 219.2 63.5 217.9 65.6L213.7 72.8C212.4 75 213.3 77 215.8 77C216.6 77 217.7 76.6 218.7 76L217.9 77.4C213.8 78.6 211.3 80.3 211.3 82.5C211.3 85.4 215.7 86 217.9 82.3L220.2 78.4C222.6 77.7 225 76.3 227.4 73.9C227.4 77.7 232.7 78.5 236 74.4H236.7C238.5 74.4 241.3 73.3 242.9 71.5C244.3 69.8 245.5 68.3 247.9 65.1L248.3 65.6C248.7 66.1 248.8 66.7 248.5 67.3L245.3 72.8C244 75 244.9 77 247.4 77C248.9 77 250.6 76 252.2 74.6C252.1 76 253.1 77 254.8 77C255.6 77 256.7 76.6 257.7 76L256.9 77.4C252.8 78.6 250.3 80.3 250.3 82.5C250.3 85.4 254.7 86 256.9 82.3L259.2 78.4C261.7 77.6 264.1 76.2 266.6 73.8C266.7 75.7 268.3 77 270.7 77C273.2 77 275.6 75.6 277.7 73.8C277.6 77.7 283 78.5 286.3 74.4H287C287.9 74.4 289.2 74.1 290.4 73.5C289.6 75.6 290.3 77 292.1 77C293.8 77 295.6 75.5 297.1 74.1C296.8 75.7 297.8 77 299.7 77C302.2 77 305.1 74.4 307.6 71.5C309.3 69.5 310.8 67.5 311.9 66.1C310.7 69.2 311.3 74.8 308.5 74.8C307.5 74.8 307.1 73.7 307.1 73.7L305.2 74.7C305.2 74.7 305.8 77.1 308.5 77.1C308.8 77.1 309.1 77.1 309.3 77H309.4C312.5 76.6 315.5 74.2 317.8 71.6C317.6 71.1 317.1 70.7 316.7 70.6L316.5 70.8C315.4 72 314.2 73.1 312.9 74C313.9 71.2 313.7 66.8 315.5 63L313.2 61.8C312 63.5 309.2 67.4 306.5 70.5L306.3 70.7C304.1 73.2 302 75.2 300.7 75.2C300 75.2 299.7 74.7 300.4 73.6L306.8 62.4H303.8L298.4 71.7C296.1 73.8 294.3 74.9 293.8 74.7C293 74.4 293.8 73.3 294.2 72.6L300.1 62.4H297.1L292.4 70.5L292.2 70.7C290.8 72.2 289.2 72.9 287.6 72.9L290.4 68.1C292.2 65 290.5 62 287.7 62C285.4 62 283.6 62.9 281.8 65.9L280.3 68.5L279.1 70.6L278.9 70.8C276.7 73.3 273.9 75.3 271.8 75.3C269.9 75.3 268.8 74.2 270.2 71.7L270.5 71.2C272.4 72 276.1 71.6 278.4 67.8L278.8 67.1C280.4 64.3 278.9 62.3 276.4 62.3C274 62.3 272 63.6 270.7 65.7L267.8 70.7L267.6 70.9C265.1 73.7 263 75.6 260.6 76.6L267.4 65.2H265.6C265.6 64 264.3 62.3 262.4 62.3C260.8 62.3 258.5 63.6 257.2 65.7L254.3 70.6L254.1 70.8C251.9 73.3 249.8 75.3 248.5 75.3C247.8 75.3 247.5 74.8 248.2 73.7L251.2 68.5C252.2 66.7 251.8 65.6 250.8 64.5L249.1 62.5C248.7 62 248.7 61.4 249.3 60.8L247.4 58.9ZM237.1 63.9C238.1 64 238.6 65.2 237.5 66.9L235.3 70.6H235.2C234.2 70.6 233.4 71.4 233.4 72.4C233.4 72.8 233.5 73.1 233.7 73.4V73.5C232.3 75.9 228.8 75.5 230.6 72.4L232.9 68.5L234.4 66.1C235.3 64.5 236.3 63.9 237.1 63.9ZM287.3 63.9C288.3 64 288.8 65.2 287.7 66.9L285.5 70.6H285.4C284.4 70.6 283.6 71.4 283.6 72.4C283.6 72.8 283.7 73.1 283.9 73.4V73.5C282.5 75.9 279 75.5 280.8 72.4L283.1 68.5L284.6 66.1C285.4 64.5 286.5 63.9 287.3 63.9ZM275.6 64.3C276.6 64.2 277.1 65.2 276.1 66.9L275.7 67.6C274.2 70 272.3 70 271.2 69.6L273.1 66.2C273.8 65 274.8 64.4 275.6 64.3ZM223.2 64.5C224.2 64.5 224.9 65.4 224 66.9L221.7 70.9C219.9 73.8 218 75.2 216.8 75.2C216.1 75.2 215.8 74.7 216.5 73.6L220.7 66.3C221.4 65.1 222.4 64.5 223.2 64.5ZM262.1 64.5C263.1 64.5 263.8 65.4 262.9 66.9L260.6 70.9C258.8 73.8 256.9 75.2 255.7 75.2C255 75.2 254.7 74.7 255.4 73.6L259.6 66.3C260.3 65.1 261.3 64.5 262.1 64.5ZM216.8 79.4L215.4 81.8C214.8 82.9 213.7 82.7 213.7 81.9C213.7 81.2 214.5 80.3 216.8 79.4ZM255.7 79.4L254.3 81.8C253.7 82.9 252.6 82.7 252.6 81.9C252.7 81.2 253.4 80.3 255.7 79.4ZM101 67.8H129.9V69.7H101V67.8ZM328.1 67.8H357V69.7H328.1V67.8Z" fill="#766458"/>
<path d="M322.7 37.4V45.1H301.9V0.399994H322.7V7.99999H309.5V18.8H320V26.5H309.5V37.4H322.7ZM289.9 0.399994H297.5V45.1H289.9V23.1L286.9 34.5H279.5L276.5 23.1V45.1H268.9V0.399994H276.5L283.3 22L289.9 0.399994ZM258 7.99999H252.5V37.3H258V7.99999ZM261 0.399994C263.5 0.399994 265.7 2.49999 265.7 5.09999V40.4C265.7 43 263.5 45.1 261 45.1H249.6C247 45.1 244.9 42.9 244.9 40.4V5.09999C244.9 2.49999 247 0.399994 249.6 0.399994H261ZM233 28.6L240.7 26.8V40.4C240.7 43 238.5 45.1 236 45.1H224.6C222 45.1 219.9 42.9 219.9 40.4V5.09999C219.9 2.49999 222 0.399994 224.6 0.399994H236C238.5 0.399994 240.7 2.49999 240.7 5.09999V14.2L233 16V7.99999H227.5V37.3H233V28.6ZM216.2 37.4V45.1H198V0.399994H205.6V37.4H216.2ZM194.8 37.4V45.1H174V0.399994H194.8V7.99999H181.6V18.8H192.1V26.5H181.6V37.4H194.8ZM162.6 0.399994H170.3L169 45.1H154.5L152.5 26.6L150.5 45.1H136L135 0.399994H142.6L143.2 37.4H144L148.8 0.399994H156.4L161.3 37.4H162.1L162.6 0.399994Z" fill="#81B3D3"/>
<path d="M381.4 214.7L406.8 140.7H432L457.7 214.7H437.5L433.8 201.3H405.2L401.4 214.7H381.4ZM417.1 162.6L409.6 187.1H429.7L422.2 162.6C421.8 161.4 421.4 160.2 421 159C420.7 157.7 420.4 156.5 420.2 155.2C420 154.7 419.9 154.3 419.9 153.9C419.8 153.4 419.7 153 419.7 152.6C419.6 153 419.5 153.4 419.4 153.9C419.3 154.3 419.2 154.7 419.2 155.2C419.1 155.4 419.1 155.5 419.1 155.7C419.1 155.8 419.1 155.9 419 156C418.8 157.1 418.5 158.3 418.2 159.4C417.7 160.4 417.4 161.5 417.1 162.6ZM299.4 214.7V140.7H318.9L346.8 178.7C347.5 179.8 348.2 181 348.8 182.2C349.5 183.4 350.2 184.6 350.8 185.8L352.2 188.8C352.7 189.8 353.1 190.8 353.6 191.7C353.5 190.9 353.4 190.1 353.3 189.3C353.2 188.5 353.1 187.7 353.1 186.9C352.9 185.3 352.8 183.7 352.8 182.1C352.7 180.4 352.7 178.8 352.7 177.1V140.8H372.1V214.8H352.7L324.6 176.6C323.8 175.7 323.1 174.6 322.4 173.3C321.7 172 321 170.6 320.4 169.2C320 168.2 319.5 167.3 319 166.3C318.6 165.4 318.3 164.4 317.8 163.5C318.2 165.9 318.5 168.3 318.7 170.8C318.9 173.3 319 175.8 319 178.2V214.7H299.4ZM211.4 159.8C215 153.2 219.9 148.2 226.3 144.7C232.7 141.2 239.3 139.5 246.2 139.5C247.1 139.5 248.1 139.5 249 139.6C250 139.7 251 139.8 251.9 139.8C254.8 140.2 257.6 140.9 260.4 141.9C263.3 142.9 266 144.2 268.5 145.8C274 149.4 278.3 154.1 281.3 160.1C284.3 166 285.8 172.1 285.8 178.6C285.8 179.4 285.8 180.2 285.7 181C285.7 181.8 285.6 182.5 285.5 183.3C285.3 185 285 186.6 284.6 188.2C284.2 189.8 283.7 191.3 283.1 192.8C279.8 200.3 274.8 206.2 267.9 210.3C261 214.4 253.8 216.5 246.2 216.5C245.7 216.5 245.1 216.5 244.6 216.4H243.1C240.4 216.2 237.8 215.7 235.2 215C232.6 214.3 230.1 213.3 227.8 212.1C221.3 208.7 216.2 203.9 212.5 197.6C208.8 191.3 206.9 184.7 206.9 177.9C206.9 176.9 206.9 175.9 207 174.9C207.1 173.9 207.2 172.8 207.5 171.8C207.9 169.8 208.4 167.7 209.1 165.8C209.5 163.6 210.4 161.7 211.4 159.8ZM264.2 186.4C264.4 185.6 264.6 184.8 264.8 184C265 183.1 265.2 182.3 265.3 181.4C265.4 180.9 265.4 180.3 265.4 179.8C265.5 179.3 265.5 178.8 265.5 178.3C265.5 177.8 265.5 177.4 265.4 176.9V175.5C265 172.2 264 169 262.4 165.9C260.8 162.8 258.5 160.4 255.7 158.7C254.9 158.3 254.2 158 253.4 157.7C252.6 157.4 251.9 157.1 251.1 156.9C250.3 156.7 249.6 156.6 248.8 156.6C248 156.4 247.3 156.4 246.5 156.4C242.6 156.4 238.9 157.6 235.6 160.1C232.3 162.6 229.9 165.9 228.6 170L228.4 170.5V171C228.2 171.7 228 172.5 227.8 173.2C227.6 173.9 227.5 174.6 227.3 175.4L227.1 177V179.4C227.1 179.6 227.1 179.9 227.2 180.2C227.4 184.3 228.7 188.2 230.9 191.9C233.2 195.5 236.4 197.9 240.4 199.1L241.8 199.6C242.3 199.7 242.8 199.8 243.3 199.8L244.7 200H246.1C250.2 200 253.9 198.8 257.1 196.4C260.4 193.8 262.8 190.5 264.2 186.4ZM182.1 207.8C178.5 210.3 174.5 212 170.3 212.9C166.1 213.8 161.7 214.4 157.4 214.6C156.2 214.7 154.9 214.7 153.7 214.7H129.9V140.7H155C156.2 140.7 157.4 140.7 158.6 140.8C162.8 141 166.9 141.6 170.9 142.5C175 143.4 178.8 145.2 182.2 147.6C186.5 150.6 189.9 154.6 192.3 159.6C194.7 164.6 196.1 169.7 196.4 174.9C196.5 175.4 196.5 175.8 196.5 176.3V179.2C196.3 184.7 195 190 192.6 195.1C190.2 200.2 186.6 204.5 182.1 207.8ZM149.7 198.1C149.9 198.1 150.2 198.1 150.4 198.2H151.2C151.5 198.2 151.8 198.2 152 198.3H155.1C156 198.2 156.8 198.1 157.5 198.1C159.5 197.9 161.5 197.6 163.4 197.1C165.3 196.6 167.1 195.7 168.6 194.7C171.1 192.9 172.9 190.5 174.1 187.5C175.3 184.4 176 181.2 176 177.9V177C176 176.7 176 176.4 175.9 176.1C175.7 173.2 175 170.3 173.8 167.6C172.6 164.8 170.9 162.6 168.7 161C167.1 159.7 165.2 158.8 163.2 158.3C161.2 157.8 159.2 157.6 157.2 157.5H149.7V198.1ZM69.8 214.7V140.7H115.2V156.8H89.6V169.8H113.6V185.6H89.6V198.1H115.1V214.7H69.8ZM10.4 190.9C10.5 191 10.5 191.1 10.5 191.1C10.6 191.1 10.7 191.1 10.7 191.2C12.8 193.5 15.2 195.7 17.8 197.7C20.4 199.6 23.5 200.7 26.9 200.8C27 200.8 27.1 200.8 27.1 200.9H27.4C27.5 200.9 27.6 200.9 27.6 201H28.9C29.3 200.9 29.6 200.8 29.9 200.8C31.1 200.6 32.3 200.1 33.4 199.4C34.6 198.7 35.5 197.9 36.1 196.8L36.3 196.3L36.5 195.8C36.7 195.3 36.8 194.8 36.8 194.3C36.9 193.8 36.9 193.4 36.9 193C36.9 190.9 36 189.2 34.1 187.8C32.4 186.4 30.4 185.2 28.3 184.4C27.5 184.1 26.7 183.9 25.9 183.7C25.2 183.5 24.4 183.3 23.7 183.1H23.5C23.4 183 23.3 183 23.3 183C19.5 182.1 15.9 180.6 12.6 178.6C9.3 176.5 7 173.5 5.7 169.7C5.5 168.9 5.2 168.1 5 167.3C4.8 166.4 4.7 165.5 4.7 164.6C4.7 164.5 4.7 164.2 4.7 164V161.2C4.8 160.6 4.9 160 5 159.3C5.2 157.7 5.6 156.2 6.2 154.7C6.7 153.2 7.4 151.8 8.3 150.5C10.8 146.4 14 143.5 17.8 141.7C21.7 139.9 25.9 139 30.1 139C31.1 139 32.1 139.1 33.1 139.2C34.2 139.3 35.3 139.4 36.4 139.5C39.2 140 42 140.8 44.6 141.8C47.4 142.9 49.9 144.2 52.3 145.6L45.9 159.9C43.8 158.4 41.6 157 39.3 155.8C37 154.6 34.5 154.1 31.8 154.1H30.9C29.1 154.3 27.5 155.1 25.9 156.5C24.4 157.8 23.6 159.2 23.6 160.8V161.5C23.7 161.7 23.8 162 23.9 162.2C24.1 162.7 24.3 163.2 24.7 163.7C25.1 164.2 25.5 164.6 26 165C26.9 165.7 28.1 166.4 29.7 167C31.3 167.5 33 168.1 34.8 168.6C36.3 169 37.7 169.4 39.1 169.8C40.5 170.1 41.7 170.4 42.6 170.7C46.9 172.2 50.2 174.8 52.4 178.5C54.6 182.1 55.7 185.9 55.8 189.9V190.5C55.8 191 55.8 191.4 55.7 191.9V193.2C55.2 197.2 53.9 201.1 51.8 204.7C49.7 208.3 46.9 211.1 43.3 213.1C42 213.7 40.6 214.3 39.2 214.7C37.8 215.1 36.4 215.4 35 215.7C33.9 215.9 32.7 216.1 31.5 216.2C30.4 216.4 29.3 216.4 28.1 216.4H26.7C22.1 216.2 17.5 215.2 13 213.4C8.5 211.5 4.5 208.9 1 205.7L10.4 190.9ZM352 338C352 337.7 352.1 337.4 352.2 337.1C352.3 336.8 352.5 336.5 352.7 336.3C352.9 336.1 353.2 335.9 353.5 335.7C353.8 335.6 354.2 335.5 354.6 335.5C355.1 335.5 355.5 335.6 355.9 335.8C356.3 336 356.7 336.2 357 336.5C357.2 336.8 357.4 337.1 357.6 337.5C357.7 337.9 357.8 338.3 357.8 338.8C357.8 339.7 357.6 340.4 357.3 341.2C357 341.9 356.6 342.6 356 343.1C355.7 343.4 355.5 343.6 355.2 343.8C354.9 344 354.6 344.2 354.3 344.3C354 344.4 353.8 344.6 353.6 344.7C353.5 344.8 353.4 344.8 353.2 344.9L351.8 342.9C352 342.8 352.3 342.7 352.6 342.5C352.9 342.4 353.2 342.2 353.5 342C353.8 341.8 354 341.5 354.2 341.2C354.4 340.9 354.5 340.6 354.5 340.2C353.9 340.2 353.3 340 352.8 339.6C352.2 339.3 352 338.8 352 338ZM359.8 338C359.8 337.7 359.9 337.4 360 337.1C360.1 336.8 360.3 336.5 360.5 336.3C360.7 336.1 361 335.9 361.3 335.7C361.6 335.6 362 335.5 362.4 335.5C362.9 335.5 363.3 335.6 363.7 335.8C364.1 336 364.5 336.2 364.8 336.5C365 336.8 365.2 337.1 365.4 337.5C365.5 337.9 365.6 338.3 365.6 338.8C365.6 339.6 365.5 340.4 365.1 341.2C364.8 341.9 364.4 342.6 363.8 343.1C363.5 343.4 363.3 343.6 363 343.8C362.7 344 362.4 344.2 362.1 344.3C361.8 344.4 361.6 344.6 361.4 344.7C361.3 344.8 361.2 344.8 361 344.9L359.7 342.9C359.9 342.8 360.2 342.7 360.5 342.5C360.8 342.4 361.1 342.2 361.4 342C361.7 341.8 361.9 341.5 362.1 341.2C362.3 340.9 362.4 340.6 362.4 340.2C361.8 340.2 361.2 340 360.7 339.6C360 339.3 359.8 338.8 359.8 338ZM95.2 279.3C95.2 279.6 95.1 279.9 95 280.2C94.9 280.5 94.7 280.8 94.5 281C94 281.5 93.3 281.8 92.6 281.8C92.2 281.8 91.7 281.7 91.3 281.5C90.9 281.3 90.5 281.1 90.2 280.8C89.9 280.5 89.7 280.1 89.6 279.8C89.5 279.4 89.4 279 89.4 278.5C89.4 277.6 89.6 276.9 89.9 276.1C90.2 275.4 90.6 274.7 91.2 274.2C91.5 273.9 91.7 273.7 92 273.5C92.3 273.3 92.6 273.1 92.9 273C93.2 272.9 93.4 272.7 93.6 272.6C93.8 272.5 93.9 272.5 94 272.4L95.3 274.4C95 274.5 94.7 274.6 94.5 274.8C94.2 274.9 93.9 275.1 93.6 275.3C93.3 275.5 93.1 275.8 92.9 276.1C92.7 276.4 92.6 276.7 92.6 277.1C93.3 277.1 93.8 277.3 94.3 277.7C95 278.1 95.2 278.6 95.2 279.3ZM87.4 279.3C87.4 279.9 87.2 280.5 86.7 281C86.5 281.2 86.2 281.4 85.9 281.6C85.6 281.7 85.2 281.8 84.8 281.8C84.4 281.8 83.9 281.7 83.5 281.5C83.1 281.3 82.7 281.1 82.4 280.8C82.1 280.5 81.9 280.1 81.8 279.8C81.7 279.4 81.6 279 81.6 278.5C81.6 277.6 81.8 276.9 82.1 276.1C82.4 275.4 82.8 274.7 83.4 274.2C83.6 274 83.9 273.7 84.2 273.5C84.5 273.3 84.8 273.1 85.1 273C85.4 272.9 85.6 272.7 85.8 272.6C86 272.5 86.1 272.5 86.2 272.4L87.5 274.4C87.3 274.5 87 274.6 86.7 274.8C86.4 274.9 86.1 275.1 85.8 275.3C85.5 275.5 85.3 275.8 85.1 276.1C84.9 276.4 84.8 276.7 84.8 277.1C85.5 277.1 86 277.3 86.5 277.7C87.1 278.1 87.4 278.6 87.4 279.3ZM332.7 336.2H336.5L348.3 315.6H344.5L332.7 336.2ZM332.6 337.7C331.4 337.7 330.4 338.7 330.4 339.9C330.4 341.1 331.3 342.1 332.6 342.1C333.8 342.1 334.8 341.2 334.8 339.9C334.8 338.6 333.8 337.7 332.6 337.7ZM306.2 332.2L307.3 330.3C311.7 324.2 314.6 325.9 313.3 328.2L311.5 331.3C310.4 333.2 307 334.6 306.2 332.2ZM331.3 335.1C331.1 334.5 330.4 333.9 329.9 333.8L329.6 334.1C328.3 335.7 326.7 337 325.1 338.2C326.3 334.6 326 329.1 328.4 324.2L325.6 322.7C324 324.8 320.6 329.8 317.2 333.8L316.9 334.1C314.2 337.3 311.5 339.8 309.9 339.8C309.1 339.8 308.3 339 308.3 337.3V335.7C311 336 313.8 334.3 315.5 331.2L316.5 329.5C320 323.5 314.3 321.5 310.4 325L315.8 315.7H312L301.2 334.4C301 334.2 300.8 334.1 300.5 333.9L300.2 334.2C297.5 337.4 294 339.9 291.3 339.9C289 339.9 287.6 338.4 289.3 335.4L293.2 328.6C295.4 324.9 299.2 325.5 297 329.4L296.5 330.3H299.6L300.1 329.4C302.1 325.9 300.2 323.3 297.1 323.3C294 323.3 291.6 324.9 290 327.7L286.3 334.1C286.2 334.1 286.1 334 286.1 334L285.8 334.3C283.1 337.5 280.4 340 278.8 340C278 340 277.5 339.4 278.4 337.9L286.5 323.8H282.7L276 335.5C273.1 338.1 270.9 339.6 270.2 339.2C269.3 338.8 270.2 337.4 270.7 336.6L278.1 323.7H274.3L267 336.4C266.2 337.1 264.6 337.8 263.8 338.3C265 334.7 264.7 329.2 267.1 324.3L264.3 322.8C262.7 324.9 254 336.5 250.6 340.5C250.9 341 251.5 341.4 252 341.8C254.1 339.3 261.3 330.1 262.7 328.3C261.2 332.2 262 339.3 258.4 339.3C257.1 339.3 256.6 337.9 256.6 337.9L254.2 339.1C254.2 339.1 254.9 342.1 258.3 342.1C258.7 342.1 259 342.1 259.4 342H259.5C261.4 341.7 264.1 340.9 265.9 339.6C265.9 341.1 266.8 342.1 268.4 342.1C270.5 342.1 272.8 340.2 274.6 338.5C274.2 340.5 275.4 342.1 277.8 342.1C280.1 342.1 282.8 340.2 285.2 337.7C285.2 340.2 287.2 342.1 290.3 342.1C293.4 342.1 296.4 340.4 299 338.1L296.9 341.8H300.7L305 334.3V337.3C305 340.5 305.6 342.2 308.7 342.2C311.8 342.2 315.4 338.9 318.5 335.2C320.6 332.7 322.5 330.1 323.9 328.3C322.4 332.2 323.2 339.3 319.6 339.3C318.3 339.3 317.8 337.9 317.8 337.9L315.4 339.1C315.4 339.1 316.1 342.1 319.5 342.1C319.9 342.1 320.2 342.1 320.6 342H320.7C324.7 341.5 328.5 338.4 331.3 335.1ZM216.7 334H216.5C215.3 334 214.3 335 214.3 336.3C214.3 336.8 214.4 337.2 214.7 337.6V337.7C212.9 340.7 208.6 340.2 210.8 336.2L213.7 331.2L215.5 328.1C218.2 323.6 221.8 325.4 219.5 329.3L216.7 334ZM191.3 348.2C190.5 349.6 189.2 349.4 189.2 348.4C189.2 347.4 190.1 346.3 193 345.2L191.3 348.2ZM162.5 334.4C160.2 338 158 339.7 156.4 339.7C155.6 339.7 155.1 339.1 156 337.6L161.3 328.4C163.3 324.9 167.4 325.8 165.5 329.2L162.5 334.4ZM150.5 319.7C151.6 317.8 152.9 316.9 153.9 316.9C155.3 316.9 156 317.8 156 319.2C156 322.7 151.6 330 145.8 329.1H145L150.5 319.7ZM243.3 333.8L243 334.1C240.3 337.3 237.6 339.8 236 339.8C235.2 339.8 234.7 339.2 235.6 337.7L241 328.1C242.6 325.2 241.1 323.2 239 323.2C237.4 323.2 235.7 324.1 233.8 326L235.2 323.5H231.4L225.3 334C225.1 333.9 225 333.8 224.8 333.7L224.5 334C222.8 335.9 220.7 336.8 218.8 336.8L222.4 330.7C224.7 326.7 222.6 323 219 323C216.1 323 213.8 324.2 211.7 327.9L209.8 331.1L208.2 333.9C208.1 333.8 208 333.8 207.9 333.7L207.6 334C204.5 337.6 201.8 339.9 198.8 341.2L209.2 323.5H205.4L198.7 335.1C195.8 337.8 193.5 339.3 192.8 339C191.9 338.6 192.8 337.2 193.3 336.4L200.7 323.5H196.9L190.9 333.9C190.8 333.8 190.7 333.8 190.6 333.7L190.3 334C187.6 337.2 184.9 339.7 183.3 339.7C182.5 339.7 182 339.1 182.9 337.6L188.3 328C189.9 325.1 188.4 323.1 186.3 323.1C184.7 323.1 183 324 181.1 325.9L182.5 323.4H178.7L172.7 333.8C172.6 333.7 172.5 333.7 172.3 333.6L172 333.9C169.3 337.1 166.6 339.6 165 339.6C164.2 339.6 163.7 339 164.6 337.5L170.7 326.8H168.6C168.7 325.2 167.1 323 164.6 323C162.6 323 159.7 324.6 158.1 327.4L154.2 334.1C153.9 333.9 153.6 333.7 153.4 333.6L153.1 333.9C150.4 337.1 148.3 339.6 144.5 339.6C141.9 339.6 140.4 337 142.6 333.2L143.7 331.3C144.4 331.4 145.1 331.5 145.8 331.5C149.8 331.5 154.4 329.4 157.4 324.2C158.5 322.3 158.9 320.6 158.9 319.1C158.9 315.7 156.7 313.5 153.9 313.5C151.8 313.5 149.4 315 147.7 317.9L141.8 328C139.6 326.8 138.4 324.7 138.4 322.6C138.4 320.9 139.2 319.1 140.8 317.8L139.6 315.6C136.9 317.5 135.7 320.1 135.7 322.6C135.7 325.6 137.4 328.5 140.5 330.1L139.4 332.1C136.7 336.7 138.3 341.8 143.6 341.8C147.8 341.8 149.7 339.9 152.3 337.4C151.5 339.8 152.7 341.8 155.3 341.8C156.8 341.8 158.7 340.8 160.5 339.3C160.7 340.8 161.8 341.8 163.8 341.8C165.6 341.8 167.6 340.7 169.5 339L168.1 341.4H171.9L177.7 331.3C183.5 324.1 186.1 325 184.4 327.8L179.5 336.3C177.9 339.1 179 341.7 182.1 341.7C184.1 341.7 186.4 340.3 188.5 338.3C188 340.4 189 341.7 190.9 341.7C192.7 341.7 194.8 340.2 196.5 338.7L194.4 342.3C189.3 343.8 186.1 345.9 186.1 348.8C186.1 352.4 191.7 353.2 194.4 348.5L197.3 343.5C200.5 342.5 203.6 340.5 206.8 337.3C206.3 342.6 213.3 343.8 217.5 338.4H218.3C219.7 338.4 221.5 337.9 223.2 336.9L220.7 341.3H224.5L230.3 331.2C236.1 324 238.7 324.9 237 327.7L232.1 336.2C230.5 339 231.6 341.6 234.7 341.6C237.8 341.6 241.4 338.3 244.5 334.6C244.4 334.6 243.8 334 243.3 333.8ZM361.9 298.2C359.6 301.9 357.3 303.7 355.7 303.7C354.9 303.7 354.4 303.1 355.3 301.6L360.6 292.4C362.6 288.9 366.7 289.8 364.8 293.2L361.9 298.2ZM325.7 298.4C323.4 302 321.2 303.7 319.6 303.7C318.8 303.7 318.3 303.1 319.2 301.6L324.5 292.4C326.5 288.9 330.6 289.8 328.7 293.2L325.7 298.4ZM285.8 312.2C285 313.6 283.7 313.4 283.7 312.4C283.7 311.4 284.6 310.3 287.5 309.2L285.8 312.2ZM293.8 283.7C294.9 281.8 296.2 280.9 297.2 280.9C303.2 280.9 298.7 295.3 289.1 293.1H288.3L293.8 283.7ZM371.5 297.8L371.2 298.1C368.5 301.3 365.8 303.8 364.2 303.8C363.4 303.8 362.9 303.2 363.8 301.7L376.6 279.6H372.8L367.2 289.2C366.5 288.1 365.3 287.2 363.7 287.2C361.7 287.2 358.8 288.8 357.2 291.6L353.5 298C353.4 298 353.3 297.9 353.3 297.9L353 298.2C350.3 301.4 348 303.9 346.3 303.9C345.5 303.9 345 303.3 345.9 301.8L351.4 292.2C353 289.3 351.5 287.3 349.4 287.3C347.8 287.3 346.1 288.2 344.2 290.1L345.6 287.6H341.8L335.8 298C335.7 297.9 335.6 297.9 335.4 297.8L335.1 298.1C332.4 301.3 329.7 303.8 328.1 303.8C327.3 303.8 326.8 303.2 327.7 301.7L333.8 291H331.7C331.8 289.4 330.2 287.2 327.7 287.2C325.7 287.2 322.8 288.8 321.2 291.6L317.5 297.9L317.3 298.1C314.6 301.3 311.5 303.8 309.9 303.8C309.1 303.8 308.6 303.2 309.5 301.7L313.3 295.1C314.6 292.8 314 291.5 312.8 290L310.7 287.5C310.2 286.8 310.2 286 310.9 285.3L308.9 283.2C306.8 285.1 306.6 287.3 307.9 289L308.2 289.4C306.5 291.8 304.3 295 301.8 297.9C301.9 298 302 298.1 302.1 298.2C299 301.8 296.3 304.1 293.4 305.4L298.2 297.2H294.4L294 297.9C292 301.4 289.7 303.9 286.8 303.9C284.2 303.9 283.8 301.3 286 297.5L287.1 295.6C287.8 295.7 288.5 295.8 289.2 295.8C302.6 295.8 309.1 277.8 297.3 277.8C295.2 277.8 292.8 279.3 291.1 282.2L285.2 292.3C283 291.1 281.8 289 281.8 286.9C281.8 285.2 282.6 283.4 284.2 282.1L283 279.9C280.3 281.8 279.1 284.4 279.1 286.9C279.1 289.9 280.8 292.8 283.9 294.4L282.8 296.4C280.1 301 280.6 306.1 286 306.1C287.6 306.1 288.9 305.6 290.1 304.9L289.1 306.6C284 308.2 280.8 310.2 280.8 313.1C280.8 316.7 286.4 317.5 289.1 312.8L292 307.8C295.9 306.6 299.8 303.9 303.9 299.1C303.8 299 303.8 298.9 303.7 298.7C305.4 296.7 306.8 294.8 309.7 291L310.2 291.6C310.7 292.2 310.9 293 310.4 293.7L306.4 300.6C304.8 303.4 305.9 306 309 306C310.9 306 313.3 304.8 315.4 303C315.4 304.7 316.5 306 318.7 306C320.2 306 322.1 305 323.9 303.5C324.1 305 325.2 306 327.2 306C329 306 331 304.9 332.9 303.2L331.5 305.6H335.3L341.1 295.5C346.9 288.3 349.5 289.2 347.8 292L342.9 300.5C341.3 303.3 342.4 305.9 345.5 305.9C347.5 305.9 349.3 304.5 351.5 302.6C351.3 304.5 352.5 305.9 354.8 305.9C356.3 305.9 358.2 304.9 360 303.4C360.2 304.9 361.3 305.9 363.3 305.9C366.4 305.9 370 302.6 373.1 298.9C372.6 298.6 372 298 371.5 297.8ZM259.2 292.5C261.4 288.8 265.2 289.4 263 293.3L262.5 294.2C260.7 297.3 258.2 297.2 256.8 296.7L259.2 292.5ZM256.2 306.1C260.5 306.1 264.7 302.8 267.9 299.1C267.6 298.6 267 298 266.5 297.8L266.2 298.1C263.5 301.3 260 303.8 257.3 303.8C255 303.8 253.6 302.3 255.3 299.3L255.7 298.6C258.1 299.6 262.7 299.1 265.5 294.2L266 293.3C268 289.8 266.1 287.2 263 287.2C260 287.2 257.5 288.8 255.9 291.6L252.2 297.9C252.2 297.9 252.1 297.9 252.1 297.8L251.8 298.1C249.1 301.3 246.4 303.8 244.8 303.8C244 303.8 243.5 303.2 244.4 301.7L249.8 292.1C251.4 289.2 249.9 287.2 247.8 287.2C246.2 287.2 244.4 288.1 242.5 290.1L248.5 279.6H244.7L234 298.1C233.9 298 233.7 297.9 233.6 297.8L233.3 298.1C230.6 301.3 227.9 303.8 226.3 303.8C225.5 303.8 225 303.2 225.9 301.7L234 287.6H237.1L238.2 285.8H235.1L238.7 279.6H234.9L231.3 285.8H227.9L226.8 287.6H230.2L222.6 300.8C221 303.6 222.1 306.2 225.2 306.2C227.1 306.2 229.1 305 231.1 303.2L229.6 305.8H233.4L239.1 295.8C244.9 288.5 247.5 289.4 245.9 292.2L241 300.7C239.4 303.5 240.5 306.1 243.6 306.1C245.9 306.1 248.4 304.3 250.9 301.9C251.1 304.3 253.1 306.1 256.2 306.1ZM128.7 292.5C130.9 288.8 134.7 289.4 132.5 293.3L132 294.2C130.2 297.3 127.7 297.2 126.3 296.7L128.7 292.5ZM151.8 301.7L157.1 292.5C159.1 289 163.2 289.9 161.3 293.3L158.4 298.5C156.1 302.1 153.9 303.8 152.3 303.8C151.4 303.7 150.9 303.2 151.8 301.7ZM205.8 292.5C208 288.8 211.8 289.4 209.6 293.3L209.1 294.2C207.3 297.3 204.9 297.2 203.4 296.7L205.8 292.5ZM148 302C147.4 304.2 148.6 306.1 151.1 306.1C152.6 306.1 154.5 305.1 156.3 303.6C156.5 305.1 157.6 306.1 159.6 306.1C161.6 306.1 163.8 304.7 166 302.8C165.6 304.8 166.5 306.1 168.4 306.1C170.5 306.1 172.8 304.2 174.6 302.5C174.2 304.5 175.4 306.1 177.8 306.1C180.9 306.1 184.5 302.8 187.6 299.1C187.6 299.1 187.5 299 187.5 298.9C189.6 296.5 191.4 293.9 192.7 292.1C191.2 296 192 303.1 188.4 303.1C187.1 303.1 186.6 301.7 186.6 301.7L184.2 302.9C184.2 302.9 184.9 306 188.3 306C188.7 306 189 306 189.4 305.9H189.5C192.3 305.5 195 303.8 197.4 301.7C197.5 304.2 199.4 306 202.5 306C206.8 306 211 302.7 214.2 299C213.9 298.5 213.3 297.9 212.8 297.7L212.5 298C209.8 301.2 206.3 303.7 203.6 303.7C201.3 303.7 199.9 302.2 201.6 299.2L202 298.5C204.4 299.5 209 299 211.8 294.1L212.3 293.2C214.3 289.7 212.4 287.1 209.3 287.1C206.2 287.1 203.8 288.7 202.2 291.5L198.5 297.8H198.4L198.1 298.1C196.8 299.7 195.2 301 193.6 302.2C194.8 298.6 194.5 293.1 196.9 288.2L194.1 286.7C192.5 288.8 189.1 293.8 185.7 297.8L185.8 297.9L185.7 298.1C183 301.3 180.3 303.8 178.7 303.8C177.9 303.8 177.4 303.2 178.3 301.7L186.4 287.6H182.6L175.9 299.3C173 301.9 170.8 303.4 170.1 303C169.2 302.6 170.1 301.2 170.6 300.4L178 287.5H174.2L168.2 297.9C168.1 297.8 168 297.8 167.9 297.7L167.6 298C164.9 301.2 162.2 303.7 160.6 303.7C159.8 303.7 159.3 303.1 160.2 301.6L166.3 290.9H164.2C164.3 289.3 162.7 287.1 160.2 287.1C158.2 287.1 155.3 288.7 153.7 291.5L149.9 298.1C149.7 298 149.5 297.8 149.3 297.7L149 298C146.3 301.2 143.1 303.7 140.5 303.7C138.2 303.7 136.8 302.2 138.5 299.2L142.4 292.4C144.6 288.7 148.4 289.3 146.2 293.2L145.7 294.1H148.8L149.3 293.2C151.3 289.7 149.4 287.1 146.3 287.1C143.2 287.1 141.2 288.7 139.6 291.5L135.8 297.9C135.7 297.8 135.6 297.8 135.5 297.7L135.2 298C132.5 301.2 129.3 303.7 126.6 303.7C124.3 303.7 122.9 302.2 124.6 299.2L125 298.5C127.4 299.5 132 299 134.8 294.1L135.3 293.2C137.3 289.7 135.4 287.1 132.3 287.1C129.2 287.1 126.8 288.7 125.2 291.5L121.2 298.3C118.8 302.3 120.9 306 125.3 306C128.6 306 131.3 304 134.1 301.4C134 304 136 306 139.2 306C142.6 306.1 145.3 304.3 148 302ZM111.1 288L114.2 282.8C117 278 120.5 280.8 118.6 284.4C117.1 287.1 115 288 111.1 288ZM107 305.3C104.7 305.3 103 304.8 101.6 304C102.3 303.2 102.9 302.3 103.5 301.3L109.9 290.3L110.9 290.4C119.7 292.2 116.2 305.3 107 305.3ZM116.4 289.8C124 287.2 124.6 277.7 117.1 277.7C115 277.7 112.6 279.2 110.9 282.1L100.7 299.7C100.3 300.5 99.8 301.2 99.2 301.8C96.6 298.2 97.3 292.8 101 290.5L99.5 288.6C91.6 293.6 93.9 308.2 107.1 308.2C118.4 308.2 123.6 294.6 116.4 289.8Z" fill="white"/>
</svg>
